<svg width="current" height="current" viewBox="0 0 25 28" fill="none" xmlns="http://www.w3.org/2000/svg">
<path d="M17.402 27.5C17.402 27.4999 17.402 27.4998 17.402 27.4997C16.2689 27.4989 11.4623 27.4971 8.63245 27.4961C8.63245 27.0658 8.6168 25.9237 8.60898 24.4099C3.68836 25.5052 2.64791 21.977 2.64791 21.977C1.84606 19.8805 0.684358 19.325 0.684358 19.325C-0.923253 18.1985 0.805613 18.222 0.805613 18.222C2.58142 18.3511 3.51626 20.0917 3.51626 20.0917C5.09258 22.8649 7.65458 22.0631 8.66374 21.6015C8.82411 20.4281 9.28175 19.6301 9.78633 19.1764C5.85922 18.7188 1.72872 17.162 1.72872 10.2113C1.72872 8.22822 2.41714 6.60887 3.54755 5.34156C3.36371 4.88392 2.75743 3.04162 3.71965 0.542196C3.71965 0.542196 5.20601 0.0571745 8.58551 2.40405C9.99364 1.99726 11.5074 1.79778 13.0133 1.78995C14.5153 1.79778 16.029 2.00117 17.4411 2.40405C20.8206 0.0532629 22.303 0.542196 22.303 0.542196C23.2691 3.04162 22.659 4.88392 22.479 5.34156C23.6134 6.60887 24.2979 8.23213 24.2979 10.2113C24.2979 17.1776 20.1634 18.7149 16.2207 19.1608C16.8543 19.724 17.4215 20.831 17.4215 22.5246C17.4215 24.9493 17.402 26.9048 17.402 27.4997C17.7088 27.4999 17.7462 27.5 17.402 27.5Z" fill="black"/>
</svg>
