<svg width="current" height="current" viewBox="0 0 28 28" fill="none" xmlns="http://www.w3.org/2000/svg">
<path d="M15.5 27.5H9.5V9.5H15.5V12.5C16.7789 10.8729 18.7184 9.90286 20.7875 9.8555C24.5084 9.87616 27.5108 12.9041 27.5 16.625V27.5H21.5V17.375C21.26 15.6989 19.8226 14.4554 18.1295 14.459C17.3889 14.4824 16.6899 14.8067 16.1937 15.3569C15.6975 15.9072 15.447 16.6359 15.5 17.375V27.5ZM6.5 27.5H0.5V9.5H6.5V27.5ZM3.5 6.5C1.84315 6.5 0.5 5.15685 0.5 3.5C0.5 1.84315 1.84315 0.5 3.5 0.5C5.15685 0.5 6.5 1.84315 6.5 3.5C6.5 4.29565 6.18393 5.05871 5.62132 5.62132C5.05871 6.18393 4.29565 6.5 3.5 6.5Z" fill="black"/>
</svg>
